<svg width="70" height="70" viewBox="0 0 70 70" fill="none" xmlns="http://www.w3.org/2000/svg">
<path d="M53.0002 36C53.0002 47.0457 44.5 55 33.0002 56C21.9545 56 24 47.0457 24 36C24 24.9543 22.9068 15.06 32.9999 15.9045C44.0822 16.8319 53.0002 24.9543 53.0002 36Z" fill="#F9CC25"/>
<path d="M18.9215 22.9927C18.9552 19.1299 22.156 16.132 26.0092 15.8568C27.3457 15.7613 27.3457 15.7333 29.4043 15.7613C30.8301 15.7807 32.9998 15.9045 32.9998 15.9045V56H20.9902C19.8894 56 18.9955 55.1104 18.9903 54.0095L18.9043 36C18.9043 36 18.9043 28.7778 18.9043 26C18.9043 25.2468 18.9113 24.1668 18.9215 22.9927Z" fill="#508FF3"/>
</svg>
